<svg width="50" height="50" viewBox="0 0 50 50" fill="none" xmlns="http://www.w3.org/2000/svg">
<g clip-path="url(#clip0_12_55)">
<path d="M26.4237 41.541H23.5762V50.0003H26.4237V41.541Z" fill="#FFDE55"/>
<path d="M26.4237 0H23.5762V8.45928H26.4237V0Z" fill="#FFDE55"/>
<path d="M6.31563 41.6711L8.3291 43.6846L14.3106 37.7031L12.2971 35.6896L6.31563 41.6711Z" fill="#FCEBA2"/>
<path d="M35.6892 12.2971L37.7026 14.3105L43.6841 8.32907L41.6706 6.3156L35.6892 12.2971Z" fill="#FCEBA2"/>
<path d="M8.45928 23.5762H0V26.4237H8.45928V23.5762Z" fill="#FFDE55"/>
<path d="M49.9998 23.5762H41.5405V26.4237H49.9998V23.5762Z" fill="#FFDE55"/>
<path d="M8.32939 6.31563L6.31592 8.3291L12.2974 14.3106L14.3109 12.2971L8.32939 6.31563Z" fill="#FCEBA2"/>
<path d="M37.7029 35.6897L35.6895 37.7031L41.6709 43.6846L43.6844 41.6711L37.7029 35.6897Z" fill="#FCEBA2"/>
<path d="M24.9997 38.5804C32.5001 38.5804 38.5804 32.5001 38.5804 24.9997C38.5804 17.4992 32.5001 11.4189 24.9997 11.4189C17.4992 11.4189 11.4189 17.4992 11.4189 24.9997C11.4189 32.5001 17.4992 38.5804 24.9997 38.5804Z" fill="#FCEBA2"/>
<path d="M24.9995 35.4199C30.7542 35.4199 35.4194 30.7547 35.4194 25C35.4194 19.2452 30.7542 14.5801 24.9995 14.5801C19.2447 14.5801 14.5796 19.2452 14.5796 25C14.5796 30.7547 19.2447 35.4199 24.9995 35.4199Z" fill="#FFDE55"/>
</g>
<defs>
<clipPath id="clip0_12_55">
<rect width="50" height="50" fill="white"/>
</clipPath>
</defs>
</svg>
